<?xml version="1.0" encoding="UTF-8"?>
<!DOCTYPE svg PUBLIC "-//W3C//DTD SVG 1.1//EN" "http://www.w3.org/Graphics/SVG/1.1/DTD/svg11.dtd">
<!-- Creator: CorelDRAW -->
<svg xmlns="http://www.w3.org/2000/svg" xml:space="preserve" width="111.358mm" height="25.5356mm" version="1.1" style="shape-rendering:geometricPrecision; text-rendering:geometricPrecision; image-rendering:optimizeQuality; fill-rule:evenodd; clip-rule:evenodd"
viewBox="0 0 8343.03 1913.14"
 xmlns:xlink="http://www.w3.org/1999/xlink"
 xmlns:xodm="http://www.corel.com/coreldraw/odm/2003">
 <defs>
  <style type="text/css">
   <![CDATA[
    .fil0 {fill:#B26D29;fill-rule:nonzero}
   ]]>
  </style>
 </defs>
 <g id="Layer_x0020_1">
  <metadata id="CorelCorpID_0Corel-Layer"/>
  <polygon class="fil0" points="2819.1,1007.22 2819.1,634.37 2655.84,853.58 2494.41,634.92 2494.41,1007.22 2445.83,1007.22 2445.83,487.18 2656.01,771.99 2867.71,487.76 2867.71,1007.22 "/>
  <path class="fil0" d="M3001.34 751.12c0,114.58 92.93,207.48 207.48,207.48 114.63,0 207.46,-92.9 207.46,-207.48 0,-114.58 -92.83,-207.48 -207.46,-207.48 -114.52,0.13 -207.32,92.98 -207.48,207.48zm-48.6 0c0,-141.43 114.63,-256.11 256.08,-256.11 141.43,0 256.09,114.68 256.09,256.11 0,141.43 -114.66,256.11 -256.09,256.11 -141.38,-0.21 -255.92,-114.76 -256.08,-256.11z"/>
  <polygon class="fil0" points="3601.12,543.65 3469.19,543.65 3469.19,495.04 3781.7,495.04 3781.7,543.65 3649.73,543.65 3649.73,1007.23 3601.12,1007.23 "/>
  <polygon class="fil0" points="3844.2,495.02 3892.8,495.02 3892.8,1007.19 3844.2,1007.19 "/>
  <polygon class="fil0" points="4588.99,495.03 4409.04,1015.08 4271.87,659.14 4136.08,1016.1 3959.21,495.03 4010.59,495.03 4136.55,866.28 4271.59,511.6 4408.73,867.36 4537.56,495.03 "/>
  <path class="fil0" d="M4670.12 850.95l188.71 0 -93.75 -235.52 -94.96 235.52zm-115.39 156.28l210.62 -522.59 208.04 522.59 -52.33 0 -42.88 -107.65 -227.62 0 -43.45 107.65 -52.38 0z"/>
  <polygon class="fil0" points="5310.77,1007.22 5038.19,1007.22 5038.19,495.05 5086.82,495.05 5086.82,958.62 5310.77,958.62 "/>
  <path class="fil0" d="M5444.39 850.95l188.71 0 -93.75 -235.52 -94.96 235.52zm-115.39 156.28l210.62 -522.59 208.03 522.59 -52.33 0 -42.87 -107.65 -227.62 0 -43.45 107.65 -52.38 0z"/>
  <path class="fil0" d="M5962.63 952.56l37.58 -30.79c26.96,32.88 71.71,45.3 111.8,31 40.04,-14.32 66.78,-52.3 66.78,-94.89l0 -362.83 48.63 0 0 362.83c-0.07,82.44 -66.92,149.26 -149.3,149.33 -44.77,0.08 -87.17,-19.98 -115.5,-54.65z"/>
  <polygon class="fil0" points="6640.83,1007.22 6331.81,1007.22 6331.81,495.05 6640.83,495.05 6640.83,543.65 6380.42,543.65 6380.42,788.46 6607.85,788.46 6607.85,837.06 6380.42,837.06 6380.42,958.62 6640.83,958.62 "/>
  <polygon class="fil0" points="7308.04,495.03 7128.1,1015.08 6990.93,659.14 6855.13,1016.1 6678.26,495.03 6729.64,495.03 6855.6,866.28 6990.64,511.6 7127.79,867.36 7256.61,495.03 "/>
  <polygon class="fil0" points="7683.21,1007.22 7374.19,1007.22 7374.19,495.05 7683.21,495.05 7683.21,543.65 7422.79,543.65 7422.79,788.46 7650.23,788.46 7650.23,837.06 7422.79,837.06 7422.79,958.62 7683.21,958.62 "/>
  <polygon class="fil0" points="8036.44,1007.22 7763.87,1007.22 7763.87,495.05 7812.5,495.05 7812.5,958.62 8036.44,958.62 "/>
  <path class="fil0" d="M8193.73 958.6c45.51,0 85.42,-30.55 97.23,-74.56 11.81,-43.98 -7.37,-90.41 -46.8,-113.2l-114.18 -66.1c-44.01,-25.45 -65.44,-77.33 -52.28,-126.44 13.21,-49.11 57.72,-83.23 108.58,-83.23l11.31 0c39.78,0.08 76.62,21.12 96.89,55.34l-41.87 24.69c-11.58,-19.43 -32.43,-31.35 -55.02,-31.42l-11.29 0c-28.89,0 -54.13,19.37 -61.61,47.23 -7.48,27.88 4.68,57.3 29.65,71.73l114.16 66.1c58.44,33.86 86.9,102.68 69.43,167.91 -17.52,65.17 -76.64,110.56 -144.2,110.56l-1.83 0c-46.73,0.16 -90.81,-21.73 -118.91,-59.04l38.69 -29.42c18.95,25.19 48.68,39.94 80.22,39.86l1.83 0z"/>
  <path class="fil0" d="M2911.15 1500.33c-48.18,0 -87.27,-39.06 -87.27,-87.28 0,-48.18 39.09,-87.25 87.27,-87.25 19.48,-0.08 38.43,6.45 53.73,18.53l-10.2 13.03c-12.4,-9.78 -27.76,-15.07 -43.56,-15.01 -30.69,0.03 -57.86,19.82 -67.26,49.03 -9.41,29.21 1.08,61.14 25.97,79.09 24.93,17.91 58.57,17.7 83.26,-0.51l0 -48.92 -56.33 0 0 -16.55 72.9 0 0 73.42 -3.01 2.49c-15.65,12.87 -35.26,19.93 -55.53,19.93l0.02 0z"/>
  <path class="fil0" d="M3084.69 1413.07c0,39.03 31.66,70.7 70.7,70.7 39.03,0 70.7,-31.66 70.7,-70.7 0,-39.04 -31.67,-70.68 -70.7,-70.68 -39.01,0.03 -70.65,31.67 -70.7,70.68zm-16.54 0c0,-48.19 39.06,-87.28 87.25,-87.28 48.2,0 87.25,39.09 87.25,87.28 0,48.18 -39.04,87.27 -87.25,87.27 -48.16,-0.07 -87.22,-39.09 -87.25,-87.27z"/>
  <polygon class="fil0" points="3438.95,1500.33 3346.07,1500.33 3346.07,1325.81 3362.64,1325.81 3362.64,1483.76 3438.95,1483.76 "/>
  <path class="fil0" d="M3642.01 1413.07c0,-39.04 -31.66,-70.68 -70.67,-70.68l-19.82 0 0 141.38 19.82 0c39.01,0 70.67,-31.66 70.67,-70.7zm16.55 0c0,48.18 -39.04,87.27 -87.22,87.27l-36.42 0 0 -174.54 36.42 0c48.18,0 87.22,39.09 87.22,87.28z"/>
  <path class="fil0" d="M3928.53 1447.09l64.31 0 -31.96 -80.27 -32.35 80.27zm-39.33 53.25l71.76 -178.06 70.91 178.06 -17.84 0 -14.62 -36.68 -77.57 0 -14.77 36.68 -17.87 0z"/>
  <polygon class="fil0" points="4145.55,1500.33 4128.98,1500.33 4128.98,1323.75 4234.91,1454.45 4234.91,1325.81 4251.46,1325.81 4251.46,1501.2 4145.55,1370.5 "/>
  <path class="fil0" d="M4470.57 1413.07c0,-39.04 -31.66,-70.68 -70.67,-70.68l-19.82 0 0 141.38 19.82 0c39.01,0 70.67,-31.66 70.67,-70.7zm16.55 0c0,48.18 -39.04,87.27 -87.22,87.27l-36.42 0 0 -174.54 36.42 0c48.18,0 87.22,39.09 87.22,87.28z"/>
  <path class="fil0" d="M4839.83 1413.07c0,-39.04 -31.66,-70.68 -70.67,-70.68l-19.82 0 0 141.38 19.82 0c39.01,0 70.67,-31.66 70.67,-70.7zm16.54 0c0,48.18 -39.03,87.27 -87.22,87.27l-36.43 0 0 -174.54 36.43 0c48.18,0 87.22,39.09 87.22,87.28z"/>
  <polygon class="fil0" points="4960.03,1325.81 4976.61,1325.81 4976.61,1500.33 4960.03,1500.33 "/>
  <path class="fil0" d="M5113.14 1447.09l64.31 0 -31.96 -80.27 -32.35 80.27zm-39.33 53.25l71.76 -178.06 70.91 178.06 -17.84 0 -14.62 -36.68 -77.57 0 -14.77 36.68 -17.87 0z"/>
  <polygon class="fil0" points="5440.76,1500.33 5440.76,1373.28 5385.13,1447.97 5330.15,1373.47 5330.15,1500.33 5313.55,1500.33 5313.55,1323.11 5385.18,1420.17 5457.33,1323.32 5457.33,1500.33 "/>
  <path class="fil0" d="M5577.63 1413.07c0,39.03 31.66,70.7 70.7,70.7 39.03,0 70.7,-31.66 70.7,-70.7 0,-39.04 -31.66,-70.68 -70.7,-70.68 -39.01,0.03 -70.65,31.67 -70.7,70.68zm-16.55 0c0,-48.19 39.07,-87.28 87.25,-87.28 48.2,0 87.25,39.09 87.25,87.28 0,48.18 -39.04,87.27 -87.25,87.27 -48.16,-0.07 -87.22,-39.09 -87.25,-87.27z"/>
  <polygon class="fil0" points="5855.83,1500.33 5839.26,1500.33 5839.26,1323.75 5945.19,1454.45 5945.19,1325.81 5961.73,1325.81 5961.73,1501.2 5855.83,1370.5 "/>
  <path class="fil0" d="M6180.85 1413.07c0,-39.04 -31.66,-70.68 -70.67,-70.68l-19.82 0 0 141.38 19.82 0c39.01,0 70.67,-31.66 70.67,-70.7zm16.54 0c0,48.18 -39.03,87.27 -87.22,87.27l-36.42 0 0 -174.54 36.42 0c48.18,0 87.22,39.09 87.22,87.28z"/>
  <path class="fil0" d="M6549.77 1384.08c0,-23.05 -18.66,-41.71 -41.7,-41.71l-48.21 0 0 83.42 48.21 0c23.05,0 41.7,-18.69 41.7,-41.71zm-41.7 58.28l-48.21 0 0 57.96 -16.57 0 0 -174.52 64.78 0c32.16,0.05 58.25,26.12 58.27,58.28 -0.02,32.16 -26.11,58.25 -58.27,58.28z"/>
  <polygon class="fil0" points="6776.49,1325.8 6715.04,1503.02 6653.11,1325.8 6670.64,1325.8 6714.96,1452.64 6758.97,1325.8 "/>
  <polygon class="fil0" points="6902.64,1342.37 6857.68,1342.37 6857.68,1325.8 6964.17,1325.8 6964.17,1342.37 6919.21,1342.37 6919.21,1500.35 6902.64,1500.35 "/>
  <path class="fil0" d="M7042.31 1490.08c0,-5.66 4.6,-10.26 10.25,-10.26 5.66,0 10.26,4.6 10.26,10.26 0,5.66 -4.6,10.26 -10.26,10.26 -5.65,0 -10.25,-4.6 -10.25,-10.26z"/>
  <polygon class="fil0" points="7402.15,1500.33 7309.28,1500.33 7309.28,1325.81 7325.85,1325.81 7325.85,1483.76 7402.15,1483.76 "/>
  <polygon class="fil0" points="7500.68,1342.37 7455.72,1342.37 7455.72,1325.8 7562.22,1325.8 7562.22,1342.37 7517.26,1342.37 7517.26,1500.35 7500.68,1500.35 "/>
  <path class="fil0" d="M7765.13 1413.07c0,-39.04 -31.67,-70.68 -70.68,-70.68l-19.82 0 0 141.38 19.82 0c39.01,0 70.68,-31.66 70.68,-70.7zm16.54 0c0,48.18 -39.03,87.27 -87.22,87.27l-36.42 0 0 -174.54 36.42 0c48.19,0 87.22,39.09 87.22,87.28z"/>
  <path class="fil0" d="M7868.63 1490.08c0,-5.66 4.6,-10.26 10.26,-10.26 5.66,0 10.25,4.6 10.25,10.26 0,5.66 -4.59,10.26 -10.25,10.26 -5.66,0 -10.26,-4.6 -10.26,-10.26z"/>
  <path class="fil0" d="M1633.02 1850.27l237.92 -393.27 0 157.48 -237.92 235.79zm-313.09 -394.03l239.06 395.18 -239.06 -236.94 0 -158.24zm-363.21 23.2l-1.46 -385.8 346.49 -318.63 0 352.55 -345.02 351.88zm-369.37 -709.03l349.7 321.2 1.46 389.08 -351.16 -358.1 0 -352.18zm-257.21 1075.98l239.03 -395.13 0 158.21 -239.03 236.92zm-311.96 -394.35l237.89 393.21 -237.89 -235.78 0 -157.43zm1547.95 -920.16l-246.2 566.5 0 -340.09 246.2 -226.41zm19.72 -59.13l-252.45 -226.19 252.45 -209.76 0 435.95zm18.17 4.94l0 -440.86 262.61 233.64 -262.61 207.22zm-18.17 1351.54l-262.98 -691.97 262.98 -605.05 0 1297.02zm18.17 -1328.92l0.28 0.37 266.64 -210.38 0 840.42 -266.92 702.35 0 -1332.76zm-650.74 62.13l365.98 -304.12 262.06 234.82 -626.14 575.86 -1.9 -506.55zm-645.54 -73.63l274.36 -225.29 352.97 293.31 1.9 510.02 -629.24 -578.04zm261.44 604.56l-245.75 -565.41 245.75 225.74 0 339.67zm-551 83.66l245.09 644.95 -245.09 -405.14 0 -239.81zm285.09 -649.85l262.97 605.07 -262.97 692.03 0 -1297.09zm-18.45 -31.51l0.24 -0.3 0 1332.67 -266.87 -702.28 0 -840.48 266.64 210.38zm0.24 -22.99l-262.6 -207.19 262.6 -233.65 0 440.84zm18.21 -3.77l0 -437.09 264.6 219.87 -264.6 217.23zm265.91 947.18l-245.57 405.89 245.57 -646.18 0 240.29zm750.76 -235.32l245.6 646.3 -245.6 -405.96 0 -240.35zm551 241.1l-245.15 405.2 245.15 -645.1 0 239.9zm-275.3 -1416.89l-648.11 538.57 -654.03 -543.54 -293.51 261.11 0 1355.94 293.69 291.1 293.67 -291.1 0 -468.46 346.89 353.76 -0.18 0.19 13.03 12.71 354.66 -361.65 0 468.49 293.67 291.07 293.7 -291.07 0 -1355.98 -293.48 -261.12z"/>
 </g>
</svg>
